<svg xmlns="http://www.w3.org/2000/svg" width="164" height="36"><path fill-rule="evenodd" d="M163.88 27.119v7.392h-21.264V.912h21.023v7.391h-13.29v5.568h12.082v7.296h-12.082v5.952h13.531zm-39.871.576c3.432 0 6.38-1.536 7.829-4.128l6.67 3.84c-2.9 4.752-8.313 7.776-14.499 7.776-10.197 0-17.591-7.584-17.591-17.472 0-9.888 7.394-17.471 17.591-17.471 6.138 0 11.551 3.024 14.499 7.775l-6.67 3.84c-1.498-2.592-4.397-4.128-7.829-4.128-5.992 0-9.858 3.984-9.858 9.984s3.866 9.984 9.858 9.984zM93.853.912h7.732v33.599h-7.732V.912zM69.592 34.511L58.574.912h8.457l7.491 24.719L82.012.912h8.458L79.451 34.511h-9.859zM35.376.912h21.022v7.391h-13.29v5.568H55.19v7.296H43.108v5.952H56.64v7.392H35.376V.912zM14.112 34.511H.58V.912h13.532c9.327 0 16.431 7.295 16.431 16.799s-7.104 16.8-16.431 16.8zm0-26.208h-5.8v18.816h5.8c5.316 0 8.988-3.648 8.988-9.408s-3.672-9.408-8.988-9.408z"/></svg>