<svg xmlns="http://www.w3.org/2000/svg" width="164" height="36"><path fill-rule="evenodd" fill="#FFC600" d="M163.168 27.294v7.393h-21.122V1.084h20.882v7.392h-13.201v5.569h12.001v7.297h-12.001v5.952h13.441zm-39.6.576c3.408 0 6.336-1.536 7.776-4.128l6.625 3.84c-2.88 4.752-8.257 7.777-14.401 7.777-10.129 0-17.474-7.585-17.474-17.474S113.439.412 123.568.412c6.096 0 11.473 3.024 14.401 7.776l-6.625 3.841c-1.488-2.592-4.368-4.129-7.776-4.129-5.953 0-9.793 3.985-9.793 9.985 0 6.001 3.84 9.985 9.793 9.985zM93.614 1.084h7.681v33.603h-7.681V1.084zM69.52 34.687L58.575 1.084h8.4l7.441 24.722 7.441-24.722h8.4L79.312 34.687H69.52zM35.535 1.084h20.882v7.392H43.216v5.569h12.001v7.297H43.216v5.952h13.441v7.393H35.535V1.084zM14.417 34.687H.975V1.084h13.442c9.264 0 16.321 7.296 16.321 16.801 0 9.505-7.057 16.802-16.321 16.802zm0-26.211H8.656v18.818h5.761c5.28 0 8.928-3.648 8.928-9.409 0-5.76-3.648-9.409-8.928-9.409z"/></svg>